<mxfile host="app.diagrams.net" modified="2024-03-15T21:56:48.410Z" agent="Mozilla/5.0 (Windows NT 10.0; Win64; x64) AppleWebKit/537.36 (KHTML, like Gecko) Chrome/122.0.0.0 Safari/537.36" version="24.0.7" etag="3ZkROAbRhN9tK4gqYmXi" type="github">
  <diagram name="Strona-1" id="KqQ05dHfc6ck3ZwJQ5Tp">
    <mxGraphModel>
      <root>
        <mxCell id="0" />
        <mxCell id="1" parent="0" />
      </root>
    </mxGraphModel>
  </diagram>
</mxfile>
